<svg aria-hidden="true" style="position: absolute; width: 0; height: 0; overflow: hidden;" version="1.1" xmlns="http://www.w3.org/2000/svg" xmlns:xlink="http://www.w3.org/1999/xlink">
<defs>
<symbol id="icon-menu" viewBox="0 0 24 24">
<path d="M3 6h18v2.016h-18v-2.016zM3 12.984v-1.969h18v1.969h-18zM3 18v-2.016h18v2.016h-18z"></path>
</symbol>
<symbol id="icon-paint-format" viewBox="0 0 64 64">
<path d="M64 36v-24h-12v-4c0-2.2-1.8-4-4-4h-44c-2.2 0-4 1.8-4 4v12c0 2.2 1.8 4 4 4h44c2.2 0 4-1.8 4-4v-4h8v16h-36v8h-2c-1.105 0-2 0.895-2 2v20c0 1.105 0.895 2 2 2h8c1.105 0 2-0.895 2-2v-20c0-1.105-0.895-2-2-2h-2v-4h36zM48 12h-44v-4h44v4z"></path>
</symbol>
<symbol id="icon-image" viewBox="0 0 64 64">
<path d="M59.993 8c0.002 0.002 0.005 0.005 0.007 0.007v47.986c-0.002 0.002-0.005 0.005-0.007 0.007h-55.986c-0.003-0.002-0.005-0.005-0.007-0.007v-47.986c0.002-0.002 0.005-0.005 0.007-0.007h55.986zM60 4h-56c-2.2 0-4 1.8-4 4v48c0 2.2 1.8 4 4 4h56c2.2 0 4-1.8 4-4v-48c0-2.2-1.8-4-4-4v0z"></path>
<path d="M52 18c0 3.314-2.686 6-6 6s-6-2.686-6-6 2.686-6 6-6 6 2.686 6 6z"></path>
<path d="M56 52h-48v-8l14-24 16 20h4l14-12z"></path>
</symbol>
<symbol id="icon-camera" viewBox="0 0 64 64">
<path d="M19 38c0 7.18 5.82 13 13 13s13-5.82 13-13-5.82-13-13-13-13 5.82-13 13zM60 16h-14c-1-4-2-8-6-8h-16c-4 0-5 4-6 8h-14c-2.2 0-4 1.8-4 4v36c0 2.2 1.8 4 4 4h56c2.2 0 4-1.8 4-4v-36c0-2.2-1.8-4-4-4zM32 55.75c-9.803 0-17.75-7.947-17.75-17.75s7.947-17.75 17.75-17.75c9.803 0 17.75 7.947 17.75 17.75s-7.947 17.75-17.75 17.75zM60 28h-8v-4h8v4z"></path>
</symbol>
<symbol id="icon-headphones" viewBox="0 0 64 64">
<path d="M18 36h-4v28h4c1.1 0 2-0.9 2-2v-24c0-1.1-0.9-2-2-2z"></path>
<path d="M46 36c-1.1 0-2 0.9-2 2v24c0 1.1 0.9 2 2 2h4v-28h-4z"></path>
<path d="M64 32c0-17.673-14.327-32-32-32s-32 14.327-32 32c0 3.838 0.677 7.518 1.916 10.928-1.217 2.075-1.916 4.492-1.916 7.072 0 7.053 5.215 12.887 12 13.857v-27.714c-1.995 0.285-3.854 0.99-5.485 2.024-0.337-1.67-0.515-3.398-0.515-5.167 0-14.359 11.641-26 26-26s26 11.641 26 26c0 1.77-0.177 3.498-0.514 5.169-1.631-1.034-3.491-1.74-5.486-2.026v27.715c6.784-0.971 12-6.805 12-13.857 0-2.58-0.699-4.996-1.916-7.071 1.239-3.41 1.916-7.091 1.916-10.929z"></path>
</symbol>
<symbol id="icon-dice" viewBox="0 0 64 64">
<path d="M54 12h-32c-5.5 0-10 4.5-10 10v32c0 5.5 4.5 10 10 10h32c5.5 0 10-4.5 10-10v-32c0-5.5-4.5-10-10-10zM26 56c-3.314 0-6-2.686-6-6s2.686-6 6-6 6 2.686 6 6-2.686 6-6 6zM26 32c-3.314 0-6-2.686-6-6s2.686-6 6-6 6 2.686 6 6-2.686 6-6 6zM38 44c-3.314 0-6-2.686-6-6s2.686-6 6-6 6 2.686 6 6-2.686 6-6 6zM50 56c-3.314 0-6-2.686-6-6s2.686-6 6-6 6 2.686 6 6-2.686 6-6 6zM50 32c-3.314 0-6-2.686-6-6s2.686-6 6-6 6 2.686 6 6-2.686 6-6 6zM51.797 8c-0.933-4.55-4.982-8-9.797-8h-32c-5.5 0-10 4.5-10 10v32c0 4.815 3.45 8.864 8 9.797v-39.797c0-2.2 1.8-4 4-4h39.797z"></path>
</symbol>
<symbol id="icon-folder" viewBox="0 0 64 64">
<path d="M28 8l8 8h28v44h-64v-52z"></path>
</symbol>
<symbol id="icon-cart" viewBox="0 0 64 64">
<path d="M24 58c0 3.314-2.686 6-6 6s-6-2.686-6-6c0-3.314 2.686-6 6-6s6 2.686 6 6z"></path>
<path d="M64 58c0 3.314-2.686 6-6 6s-6-2.686-6-6c0-3.314 2.686-6 6-6s6 2.686 6 6z"></path>
<path d="M64 32v-24h-48c0-2.209-1.791-4-4-4h-12v4h8l3.005 25.753c-1.831 1.466-3.005 3.719-3.005 6.247 0 4.419 3.582 8 8 8h48v-4h-48c-2.209 0-4-1.791-4-4 0-0.014 0.001-0.027 0.001-0.041l51.999-7.959z"></path>
</symbol>
<symbol id="icon-phone" viewBox="0 0 64 64">
<path d="M44 40c-4 4-4 8-8 8s-8-4-12-8-8-8-8-12 4-4 8-8-8-16-12-16-12 12-12 12c0 8 8.219 24.219 16 32s24 16 32 16c0 0 12-8 12-12s-12-16-16-12z"></path>
</symbol>
<symbol id="icon-location" viewBox="0 0 64 64">
<path d="M32 0c-11.046 0-20 8.954-20 20 0 20 20 44 20 44s20-24 20-44c0-11.046-8.954-20-20-20zM32 32c-6.628 0-12-5.372-12-12s5.372-12 12-12 12 5.372 12 12-5.373 12-12 12z"></path>
</symbol>
<symbol id="icon-calendar" viewBox="0 0 64 64">
<path d="M20 24h8v8h-8zM32 24h8v8h-8zM44 24h8v8h-8zM8 48h8v8h-8zM20 48h8v8h-8zM32 48h8v8h-8zM20 36h8v8h-8zM32 36h8v8h-8zM44 36h8v8h-8zM8 36h8v8h-8zM52 0v4h-8v-4h-28v4h-8v-4h-8v64h60v-64h-8zM56 60h-52v-44h52v44z"></path>
</symbol>
<symbol id="icon-laptop" viewBox="0 0 64 64">
<path d="M56 44v-32c0-2.2-1.8-4-4-4h-40c-2.2 0-4 1.8-4 4v32h-8v12h64v-12h-8zM40 52h-16v-4h16v4zM52 44h-40v-31.993c0.002-0.002 0.005-0.005 0.007-0.007h39.986c0.002 0.002 0.005 0.005 0.007 0.007v31.993z"></path>
</symbol>
<symbol id="icon-mobile2" viewBox="0 0 64 64">
<path d="M48 0h-36c-2.2 0-4 1.8-4 4v56c0 2.2 1.8 4 4 4h36c2.2 0 4-1.8 4-4v-56c0-2.2-1.8-4-4-4zM30 61.111c-1.718 0-3.111-1.393-3.111-3.111s1.393-3.111 3.111-3.111 3.111 1.393 3.111 3.111-1.393 3.111-3.111 3.111zM48 52h-36v-44h36v44z"></path>
</symbol>
<symbol id="icon-bubble" viewBox="0 0 64 64">
<path d="M32 4c17.673 0 32 11.641 32 26s-14.327 26-32 26c-1.697 0-3.363-0.108-4.989-0.315-6.874 6.874-15.078 8.106-23.011 8.287v-1.682c4.284-2.099 8-5.921 8-10.29 0-0.61-0.047-1.208-0.135-1.794-7.237-4.767-11.865-12.047-11.865-20.206 0-14.359 14.327-26 32-26z"></path>
</symbol>
<symbol id="icon-user" viewBox="0 0 64 64">
<path d="M36 44.163v-3.299c4.406-2.483 8-8.673 8-14.864 0-9.941 0-18-12-18s-12 8.059-12 18c0 6.191 3.594 12.382 8 14.864v3.299c-13.569 1.109-24 7.776-24 15.837h56c0-8.060-10.431-14.727-24-15.837z"></path>
</symbol>
<symbol id="icon-cog" viewBox="0 0 64 64">
<path d="M58.362 38.141c-3.358-5.816-1.339-13.269 4.51-16.655l-6.289-10.893c-1.797 1.053-3.886 1.657-6.115 1.657-6.721 0-12.169-5.484-12.169-12.249h-12.579c0.017 2.088-0.505 4.205-1.622 6.141-3.358 5.816-10.822 7.794-16.679 4.422l-6.289 10.893c1.811 1.029 3.378 2.537 4.493 4.467 3.352 5.807 1.345 13.245-4.482 16.639l6.289 10.893c1.791-1.044 3.87-1.641 6.088-1.641 6.7 0 12.134 5.45 12.169 12.185h12.578c-0.005-2.067 0.517-4.161 1.623-6.076 3.352-5.807 10.798-7.787 16.651-4.438l6.289-10.893c-1.799-1.029-3.356-2.531-4.465-4.452zM32 44.958c-7.157 0-12.959-5.801-12.959-12.958s5.802-12.958 12.959-12.958c7.157 0 12.958 5.802 12.958 12.958s-5.801 12.958-12.958 12.958z"></path>
</symbol>
<symbol id="icon-cogs" viewBox="0 0 64 64">
<path d="M22.733 45.128l2.581-3.614-2.828-2.828-3.614 2.581c-0.67-0.375-1.388-0.673-2.142-0.887l-0.73-4.38h-4l-0.73 4.38c-0.754 0.214-1.472 0.512-2.142 0.887l-3.614-2.581-2.829 2.828 2.581 3.614c-0.375 0.67-0.673 1.388-0.887 2.142l-4.38 0.73v4l4.38 0.73c0.214 0.754 0.512 1.471 0.887 2.142l-2.581 3.614 2.828 2.828 3.614-2.581c0.67 0.375 1.388 0.673 2.142 0.887l0.73 4.38h4l0.73-4.38c0.754-0.214 1.471-0.512 2.142-0.887l3.614 2.581 2.828-2.828-2.581-3.614c0.375-0.67 0.673-1.388 0.887-2.142l4.381-0.73v-4l-4.38-0.73c-0.214-0.754-0.512-1.471-0.887-2.142zM14 54c-2.209 0-4-1.791-4-4s1.791-4 4-4 4 1.791 4 4-1.791 4-4 4zM64 24v-4l-4.211-0.766c-0.078-0.503-0.177-0.999-0.295-1.487l3.597-2.319-1.531-3.696-4.184 0.904c-0.263-0.432-0.545-0.851-0.843-1.258l2.438-3.521-2.828-2.828-3.521 2.438c-0.407-0.298-0.826-0.58-1.258-0.843l0.904-4.184-3.696-1.531-2.319 3.597c-0.488-0.118-0.984-0.218-1.487-0.295l-0.766-4.211h-4l-0.766 4.211c-0.503 0.078-0.998 0.177-1.487 0.295l-2.319-3.597-3.695 1.531 0.904 4.184c-0.432 0.263-0.851 0.545-1.258 0.843l-3.521-2.438-2.828 2.828 2.438 3.521c-0.298 0.407-0.58 0.826-0.843 1.258l-4.184-0.904-1.531 3.696 3.597 2.319c-0.118 0.488-0.218 0.984-0.295 1.487l-4.212 0.766v4l4.211 0.766c0.078 0.503 0.177 0.999 0.295 1.487l-3.597 2.319 1.531 3.696 4.184-0.904c0.264 0.432 0.546 0.851 0.843 1.258l-2.438 3.521 2.828 2.828 3.521-2.438c0.407 0.298 0.826 0.58 1.258 0.843l-0.904 4.184 3.695 1.531 2.319-3.597c0.488 0.118 0.984 0.218 1.487 0.295l0.766 4.212h4l0.766-4.211c0.503-0.078 0.998-0.177 1.487-0.295l2.319 3.597 3.696-1.531-0.904-4.184c0.432-0.264 0.851-0.545 1.258-0.843l3.521 2.438 2.828-2.828-2.438-3.521c0.298-0.407 0.58-0.826 0.843-1.258l4.184 0.904 1.531-3.696-3.597-2.319c0.118-0.488 0.218-0.984 0.295-1.487l4.211-0.766zM42 30.7c-4.805 0-8.7-3.895-8.7-8.7s3.895-8.7 8.7-8.7 8.7 3.895 8.7 8.7c0 4.805-3.895 8.7-8.7 8.7z"></path>
</symbol>
<symbol id="icon-trophy" viewBox="0 0 64 64">
<path d="M52 12v-8h-40v8h-12v8c0 6.627 5.372 12 12 12 1.255 0 2.464-0.193 3.601-0.55 2.886 4.126 7.288 7.112 12.399 8.15v12.4h-4c-4.418 0-8 3.582-8 8h32c0-4.418-3.582-8-8-8h-4v-12.4c5.111-1.038 9.513-4.024 12.399-8.15 1.137 0.357 2.346 0.55 3.601 0.55 6.628 0 12-5.373 12-12v-8h-12zM12 27.25c-3.998 0-7.25-3.252-7.25-7.25v-4h7.25v4c0 2.512 0.464 4.915 1.31 7.129-0.425 0.078-0.862 0.121-1.31 0.121zM59.25 20c0 3.998-3.252 7.25-7.25 7.25-0.447 0-0.885-0.043-1.31-0.121 0.845-2.215 1.31-4.618 1.31-7.129v-4h7.25v4z"></path>
</symbol>
<symbol id="icon-mug" viewBox="0 0 64 64">
<path d="M60 20h-12v-6c0-5.523-10.745-10-24-10s-24 4.477-24 10v40c0 5.523 10.745 10 24 10s24-4.477 24-10v-6h12c2.209 0 4-1.791 4-4v-20c0-2.209-1.791-4-4-4zM11.004 16.15c-2.312-0.762-3.713-1.578-4.463-2.15 0.75-0.572 2.151-1.388 4.463-2.15 3.621-1.193 8.237-1.85 12.996-1.85s9.375 0.657 12.996 1.85c2.312 0.762 3.713 1.578 4.463 2.15-0.75 0.572-2.151 1.388-4.463 2.15-3.621 1.193-8.237 1.85-12.996 1.85s-9.375-0.657-12.996-1.85zM56 40h-8v-12h8v12z"></path>
</symbol>
<symbol id="icon-eye" viewBox="0 0 64 64">
<path d="M32 12c-13.957 0-26.055 8.128-32 20 5.945 11.872 18.043 20 32 20s26.055-8.128 32-20c-5.945-11.872-18.043-20-32-20zM47.778 22.607c3.76 2.398 6.946 5.611 9.34 9.393-2.393 3.783-5.58 6.995-9.34 9.394-4.725 3.014-10.181 4.606-15.778 4.606s-11.054-1.593-15.778-4.606c-3.76-2.398-6.946-5.611-9.339-9.394 2.393-3.783 5.58-6.995 9.34-9.393 0.245-0.156 0.492-0.308 0.741-0.456-0.622 1.708-0.963 3.551-0.963 5.475 0 8.836 7.163 16 16 16s16-7.164 16-16c0-1.923-0.341-3.767-0.963-5.475 0.249 0.149 0.496 0.3 0.741 0.456v0zM32 26c0 3.314-2.686 6-6 6s-6-2.686-6-6 2.686-6 6-6 6 2.686 6 6z"></path>
</symbol>
<symbol id="icon-star-full" viewBox="0 0 64 64">
<path d="M64 24.816l-22.111-3.213-9.889-20.036-9.889 20.036-22.111 3.213 16 15.596-3.777 22.022 19.777-10.397 19.777 10.397-3.777-22.022 16-15.596z"></path>
</symbol>
<symbol id="icon-plus" viewBox="0 0 64 64">
<path d="M62 24h-22v-22c0-1.105-0.895-2-2-2h-12c-1.105 0-2 0.895-2 2v22h-22c-1.105 0-2 0.895-2 2v12c0 1.105 0.895 2 2 2h22v22c0 1.105 0.895 2 2 2h12c1.105 0 2-0.895 2-2v-22h22c1.105 0 2-0.895 2-2v-12c0-1.105-0.895-2-2-2z"></path>
</symbol>
<symbol id="icon-arrow-right2" viewBox="0 0 64 64">
<path d="M38.828 54.828l20-20c1.562-1.562 1.562-4.095 0-5.657l-20-20c-1.562-1.562-4.095-1.562-5.657 0s-1.562 4.095 0 5.657l13.172 13.172h-38.343c-2.209 0-4 1.791-4 4s1.791 4 4 4h38.343l-13.172 13.172c-0.781 0.781-1.172 1.805-1.172 2.828s0.391 2.047 1.172 2.828c1.562 1.562 4.095 1.562 5.657 0z"></path>
</symbol>
<symbol id="icon-arrow-left2" viewBox="0 0 64 64">
<path d="M25.172 54.828l-20-20c-1.562-1.562-1.562-4.095 0-5.657l20-20c1.562-1.562 4.095-1.562 5.657 0s1.562 4.095 0 5.657l-13.172 13.172h38.343c2.209 0 4 1.791 4 4s-1.791 4-4 4h-38.343l13.172 13.172c0.781 0.781 1.172 1.805 1.172 2.828s-0.39 2.047-1.172 2.828c-1.562 1.562-4.095 1.562-5.657 0z"></path>
</symbol>
<symbol id="icon-mail4" viewBox="0 0 64 64">
<path d="M32 0c-17.673 0-32 14.327-32 32s14.327 32 32 32 32-14.327 32-32-14.327-32-32-32zM16 16h32c0.571 0 1.125 0.123 1.634 0.354l-17.634 20.573-17.634-20.573c0.509-0.231 1.063-0.354 1.634-0.354zM12 44v-24c0-0.084 0.004-0.167 0.009-0.25l11.729 13.684-11.6 11.6c-0.090-0.334-0.138-0.68-0.138-1.034zM48 48h-32c-0.353 0-0.7-0.048-1.034-0.138l11.382-11.382 5.651 6.594 5.651-6.593 11.382 11.383c-0.334 0.090-0.68 0.138-1.034 0.138zM52 44c0 0.353-0.048 0.7-0.138 1.034l-11.6-11.6 11.729-13.684c0.005 0.083 0.009 0.166 0.009 0.25v24z"></path>
</symbol>
<symbol id="icon-google-plus" viewBox="0 0 64 64">
<path d="M20.363 28.587v6.987h11.55c-0.462 3-3.488 8.788-11.55 8.788-6.95 0-12.625-5.763-12.625-12.863s5.675-12.863 12.625-12.863c3.962 0 6.6 1.688 8.113 3.137l5.525-5.325c-3.55-3.313-8.15-5.325-13.637-5.325-11.262 0.012-20.363 9.113-20.363 20.375s9.1 20.363 20.363 20.363c11.75 0 19.55-8.263 19.55-19.9 0-1.337-0.15-2.363-0.325-3.375h-19.225z"></path>
<path d="M64 28h-6v-6h-6v6h-6v6h6v6h6v-6h6z"></path>
</symbol>
<symbol id="icon-facebook" viewBox="0 0 64 64">
<path d="M38 12h10v-12h-10c-7.72 0-14 6.28-14 14v6h-8v12h8v32h12v-32h10l2-12h-12v-6c0-1.084 0.916-2 2-2z"></path>
</symbol>
<symbol id="icon-twitter" viewBox="0 0 64 64">
<path d="M64 14.15c-2.35 1.050-4.888 1.75-7.538 2.062 2.712-1.625 4.788-4.2 5.775-7.262-2.538 1.5-5.35 2.6-8.337 3.188-2.4-2.55-5.813-4.138-9.587-4.138-7.25 0-13.125 5.875-13.125 13.125 0 1.025 0.113 2.025 0.337 2.988-10.913-0.55-20.587-5.775-27.063-13.725-1.125 1.938-1.775 4.2-1.775 6.6 0 4.55 2.312 8.575 5.838 10.925-2.15-0.063-4.175-0.663-5.95-1.637 0 0.050 0 0.113 0 0.163 0 6.363 4.525 11.675 10.537 12.875-1.1 0.3-2.262 0.462-3.463 0.462-0.85 0-1.662-0.087-2.475-0.237 1.675 5.212 6.525 9.012 12.262 9.125-4.5 3.525-10.15 5.625-16.313 5.625-1.063 0-2.1-0.063-3.138-0.188 5.825 3.737 12.725 5.9 20.137 5.9 24.15 0 37.362-20.013 37.362-37.362 0-0.575-0.013-1.137-0.038-1.7 2.563-1.837 4.788-4.15 6.55-6.787z"></path>
</symbol>
<symbol id="icon-youtube" viewBox="0 0 64 64">
<path d="M63.362 19.2c0 0-0.625-4.412-2.55-6.35-2.438-2.55-5.163-2.563-6.413-2.713-8.95-0.65-22.387-0.65-22.387-0.65h-0.025c0 0-13.438 0-22.387 0.65-1.25 0.15-3.975 0.162-6.412 2.713-1.925 1.938-2.538 6.35-2.538 6.35s-0.637 5.175-0.637 10.363v4.85c0 5.175 0.637 10.363 0.637 10.363s0.625 4.413 2.538 6.35c2.438 2.55 5.638 2.462 7.063 2.737 5.125 0.487 21.762 0.638 21.762 0.638s13.45-0.025 22.4-0.663c1.25-0.15 3.975-0.163 6.413-2.712 1.925-1.938 2.55-6.35 2.55-6.35s0.638-5.175 0.638-10.362v-4.85c-0.013-5.175-0.65-10.363-0.65-10.363zM25.387 40.3v-17.988l17.287 9.025-17.288 8.962z"></path>
</symbol>
<symbol id="icon-dribbble" viewBox="0 0 64 64">
<path d="M32 64c-17.65 0-32-14.35-32-32s14.35-32 32-32c17.65 0 32 14.35 32 32s-14.35 32-32 32v0zM58.987 36.375c-0.938-0.3-8.462-2.538-17.025-1.163 3.575 9.825 5.025 17.825 5.313 19.488 6.125-4.15 10.5-10.712 11.712-18.325v0zM42.675 57.2c-0.413-2.4-1.987-10.75-5.825-20.725-0.063 0.025-0.125 0.038-0.175 0.063-15.425 5.375-20.962 16.063-21.45 17.063 4.637 3.612 10.463 5.775 16.775 5.775 3.787 0 7.4-0.775 10.675-2.175v0zM11.688 50.313c0.625-1.063 8.125-13.475 22.212-18.038 0.35-0.112 0.712-0.225 1.075-0.325-0.688-1.55-1.438-3.113-2.212-4.637-13.637 4.087-26.887 3.913-28.087 3.9-0.013 0.275-0.013 0.55-0.013 0.837 0 7.013 2.663 13.425 7.025 18.263v0zM5.25 26.438c1.225 0.012 12.488 0.063 25.275-3.325-4.525-8.050-9.413-14.825-10.137-15.813-7.65 3.613-13.375 10.662-15.137 19.137v0zM25.6 5.463c0.75 1.013 5.725 7.775 10.2 16 9.725-3.637 13.837-9.175 14.325-9.875-4.825-4.287-11.175-6.888-18.125-6.888-2.2 0.013-4.35 0.275-6.4 0.763v0zM53.163 14.762c-0.575 0.775-5.163 6.65-15.262 10.775 0.638 1.3 1.25 2.625 1.813 3.962 0.2 0.475 0.4 0.938 0.587 1.413 9.1-1.137 18.137 0.688 19.038 0.875-0.063-6.45-2.375-12.375-6.175-17.025v0z"></path>
</symbol>
<symbol id="icon-linkedin2" viewBox="0 0 64 64">
<path d="M24 24h11.069v5.674h0.158c1.54-2.762 5.31-5.674 10.928-5.674 11.684 0 13.845 7.273 13.845 16.733v19.267h-11.538v-17.080c0-4.074-0.083-9.314-6.002-9.314-6.009 0-6.926 4.437-6.926 9.018v17.376h-11.534v-36z"></path>
<path d="M4 24h12v36h-12v-36z"></path>
<path d="M16 14c0 3.314-2.686 6-6 6s-6-2.686-6-6c0-3.314 2.686-6 6-6s6 2.686 6 6z"></path>
</symbol>
</defs>
</svg>
